<?xml version="1.0" encoding="UTF-8" standalone="no"?>
<svg
   xmlns:dc="http://purl.org/dc/elements/1.1/"
   xmlns:cc="http://creativecommons.org/ns#"
   xmlns:rdf="http://www.w3.org/1999/02/22-rdf-syntax-ns#"
   xmlns:svg="http://www.w3.org/2000/svg"
   xmlns="http://www.w3.org/2000/svg"
   id="svg8"
   version="1.1"
   viewBox="0 0 204.60757 127.15229"
   height="127.15229mm"
   width="204.60757mm">
  <defs
     id="defs2" />
  <metadata
     id="metadata5">
    <rdf:RDF>
      <cc:Work
         rdf:about="">
        <dc:format>image/svg+xml</dc:format>
        <dc:type
           rdf:resource="http://purl.org/dc/dcmitype/StillImage" />
        <dc:title></dc:title>
      </cc:Work>
    </rdf:RDF>
  </metadata>
  <g
     transform="translate(-2.4645726,-1.9613728)"
     id="layer1">
    <path
       id="path3729"
       d="M 31.444543,13.999102 C 16.304579,32.050599 5.8230637,23.89831 5.8230637,23.89831 c 0,0 -6.40537007,-6.405369 -1.1646128,-9.316903 5.2407577,-2.91153 13.3930471,5.240759 16.8868851,2.329228 3.493838,-2.911533 8.15229,-16.88688481 12.228435,-14.5576598 4.076144,2.329225 19.798416,13.3930458 9.899208,18.6338038 -9.899208,5.240756 -16.886886,13.393047 -16.886886,18.051497 0,4.65845 1.164614,6.987678 5.240758,7.569983 4.076145,0.582306 8.152289,-1.746919 10.481514,-5.240758 2.329225,-3.493839 4.65845,-17.469191 9.316902,-17.469191 4.65845,0 6.987675,-19.2161098 11.063822,-20.3807218 4.076144,-1.164613 14.557658,0 14.557658,5.240757 0,5.2407568 -0.582306,9.3169008 -5.240758,6.4053708 -4.65845,-2.911534 -8.734594,-8.7345958 -9.899208,-2.911534 -1.164611,5.823064 8.734597,27.3684 -8.152289,33.773772 -16.886885,6.405369 -23.292255,9.316899 -19.798416,15.722271 3.493839,6.40537 13.393047,-5.240758 30.862238,6.40537 17.469191,11.646127 5.823064,30.86224 13.975352,30.27993 8.152289,-0.58231 16.886886,6.987685 11.063822,8.734605 -5.823063,1.74692 -12.810741,-2.91154 -15.139966,-5.82307 C 72.788297,98.433525 68.129845,85.040485 61.724475,82.711252 55.319106,80.382027 39.014526,68.7359 36.685301,70.482819 c -2.329225,1.74692 6.405369,20.963026 6.405369,26.203786 0,5.240765 -6.405369,10.481525 -10.481513,10.481525 -4.076145,0 -13.975353,2.32922 -14.557659,-2.91154 C 17.469191,99.015835 9.3169019,84.458175 7.5699828,87.952015 c -1.7469191,3.49383 -3.4938382,8.15228 -3.4938382,1.16461 0,-6.987678 0.5823063,-11.646128 5.2407573,-9.316903 4.6584511,2.329225 3.4938391,6.405373 11.0638211,13.393043 7.569984,6.987685 16.886884,11.063825 16.304578,5.82307 -0.582305,-5.24076 -13.975352,-5.24076 -9.899208,-18.051502 4.076144,-12.810738 5.823064,-13.975352 0,-22.127641 -5.823064,-8.152289 -10.481514,-19.798416 -6.987676,-24.456866 3.493838,-4.658452 19.216109,-13.975355 17.46919,-17.469191 -1.74692,-3.493839 -5.823064,-2.911533 -5.823064,-2.911533 z"
       style="fill:#808000;stroke:#000000;stroke-width:0.26458332px;stroke-linecap:butt;stroke-linejoin:miter;stroke-opacity:1" />
    <flowRoot
       transform="scale(0.26458333)"
       style="font-style:normal;font-weight:normal;font-size:40px;line-height:1.25;font-family:sans-serif;letter-spacing:0px;word-spacing:0px;fill:#000000;fill-opacity:1;stroke:none"
       id="flowRoot3731"
       xml:space="preserve"><flowRegion
         id="flowRegion3733"><rect
           y="195.96478"
           x="398.35257"
           height="310.31885"
           width="354.33572"
           id="rect3735" /></flowRegion><flowPara
         id="flowPara3737" /></flowRoot>    <flowRoot
       transform="scale(0.26458333)"
       style="font-style:normal;font-weight:normal;font-size:40px;line-height:1.25;font-family:sans-serif;letter-spacing:0px;word-spacing:0px;fill:#000000;fill-opacity:1;stroke:none"
       id="flowRoot3739"
       xml:space="preserve"><flowRegion
         id="flowRegion3741"><rect
           y="178.35805"
           x="305.91718"
           height="90.234566"
           width="114.44383"
           id="rect3743" /></flowRegion><flowPara
         id="flowPara3745"></flowPara></flowRoot>    <path
       id="path3747"
       d="m 107.14437,61.165917 c 27.95071,-27.950705 37.84992,-37.849913 25.62148,-44.255285 -12.22843,-6.405368 -30.27993,5.240759 -34.356075,15.722275 -4.076144,10.481513 -0.582305,24.456866 -3.493838,29.697624 -2.911531,5.240755 -11.646128,8.734594 -2.329225,15.722272 9.316898,6.987672 15.139968,18.633802 23.292258,8.734602 8.15229,-9.899216 14.55766,-25.039182 5.82306,-22.709955 -8.73459,2.329225 -13.97535,-2.911533 -15.72228,0.582306 -1.74691,3.493839 -1.16461,6.987677 5.82307,5.823064 6.98768,-1.164614 6.40537,4.658449 1.74692,6.987674 -4.65845,2.329228 -12.81074,4.076147 -13.975346,-1.164611 -1.164619,-5.240758 3.493826,-11.646127 2.911526,-16.304577 -0.58231,-4.658453 -1.74692,-15.139966 0.5823,-20.96303 2.32923,-5.823064 5.82307,-12.228433 11.64613,-14.55766 5.82307,-2.329225 13.97536,-4.65845 13.39305,0 -0.5823,4.658452 -5.82306,11.646127 -10.48151,15.139966 -4.65845,3.493838 -15.13997,12.228433 -12.81075,16.886885 2.32923,4.65845 2.32923,4.65845 2.32923,4.65845 z"
       style="fill:#800000;stroke:#000000;stroke-width:0.26458332px;stroke-linecap:butt;stroke-linejoin:miter;stroke-opacity:1" />
    <ellipse
       ry="6.4053707"
       rx="6.6965232"
       cy="61.165916"
       cx="107.43552"
       id="path3749"
       style="fill:#800000;stroke-width:0.26458332" />
    <path
       id="path3751"
       d="m 160.71656,52.431322 c 13.97535,-16.304577 15.13996,-25.62148 27.9507,-15.722272 12.81074,9.899208 23.29226,11.646128 15.72227,26.203788 -7.56998,14.557653 -21.54533,25.621477 -17.46919,32.609147 4.07615,6.987685 11.64613,11.063835 4.65845,12.810755 -6.98767,1.74692 -9.8992,2.32922 -9.3169,-2.91154 0.58231,-5.24075 9.3169,-11.063825 -4.65845,-9.316905 0,0 -6.98767,18.051505 -16.88688,17.469195 -9.89921,-0.5823 -22.12764,-9.8992 -16.88689,-18.633805 5.24076,-8.73459 7.56999,-20.380719 15.13997,-26.203783 7.56998,-5.823064 17.46919,-5.823064 17.46919,1.746919 0,7.56998 2.32923,18.633804 -3.49384,12.810734 -5.82306,-5.823054 -1.74692,-8.734589 -8.15229,-6.405364 -6.40537,2.32923 -9.89921,1.16461 -11.64612,11.063814 -1.74692,9.89921 -1.74692,13.975365 2.32922,15.139975 4.07615,1.16461 10.48152,1.16461 12.22843,-3.493845 1.74692,-4.65845 1.16462,-8.15229 4.07615,-11.64613 2.91153,-3.49383 6.40537,-4.07614 8.73459,-6.405364 2.32923,-2.32922 6.98768,-2.91153 8.7346,-9.899207 1.74692,-6.987677 11.64613,-16.886885 7.56998,-20.380723 -4.07614,-3.493838 -2.32922,0 -8.73459,-4.658451 -6.40537,-4.658451 -14.55766,-6.987677 -15.13997,-4.658451 -4.07614,18.051497 -6.98767,25.62148 -9.3169,18.633804 -2.32923,-6.987677 -2.91153,-8.152291 -2.91153,-8.152291 z"
       style="fill:#800000;stroke:#000000;stroke-width:0.26458332px;stroke-linecap:butt;stroke-linejoin:miter;stroke-opacity:1" />
    <path
       id="path3753"
       d="m 142.66505,31.468292 c -15.72227,41.343754 -15.13996,43.090673 -19.21611,49.496043 -4.07614,6.40537 -6.40537,8.7346 -3.49383,11.06382 2.91153,2.32923 4.65845,12.810745 10.48151,-0.5823 5.82306,-13.393054 4.07614,-24.456873 7.56998,-25.621487 3.49384,-1.164613 8.15229,-5.823063 3.49384,10.481514 -4.65845,16.304583 -8.7346,23.874568 -4.65845,22.127643 4.07614,-1.74692 1.74692,4.658455 5.24076,-5.82306 3.49384,-10.481519 12.22843,-30.862241 8.15229,-32.026855 -4.07615,-1.164611 -8.7346,1.74692 -10.48152,-0.582305 -1.74692,-2.329225 0,-5.823064 2.32923,-7.569983 2.32922,-1.74692 11.64612,0 20.38072,-8.734595 8.7346,-8.734596 11.06382,-15.139966 6.98768,-15.722271 -4.07615,-0.582308 0,-3.493839 -5.24076,1.746919 -5.24076,5.240756 -15.72227,20.380722 -18.0515,16.304577 -2.32922,-4.076144 -3.49384,-2.911533 0,-8.734596 3.49384,-5.823064 9.89921,-12.228433 8.15229,-15.139964 -1.74692,-2.911533 1.16461,-9.899209 -11.64613,9.3169 z"
       style="fill:#808000;stroke:#000000;stroke-width:0.26458332px;stroke-linecap:butt;stroke-linejoin:miter;stroke-opacity:1" />
    <path
       id="path3755"
       d="M 75.117522,32.050599 C 64.0537,44.86134 55.901412,49.51979 61.14217,55.342853 c 5.240755,5.823064 12.228433,12.810742 19.216108,6.405372 6.987677,-6.405372 13.975355,-14.55766 13.975355,-21.545335 0,-6.987678 -0.582309,-14.557661 -7.569984,-12.228436 -6.987677,2.329228 -8.152288,8.734597 -4.076144,7.569983 4.076144,-1.164611 9.3169,-1.746919 6.405369,4.076145 -2.911533,5.823063 -2.911533,12.810741 -9.316902,15.139966 -6.405369,2.329225 -12.228433,4.076144 -12.810739,-0.582306 -0.582308,-4.658452 0.582306,-4.658452 6.40537,-11.063822 5.823063,-6.405369 8.152288,-10.481513 1.746919,-11.063821 z"
       style="fill:#800000;stroke:#000000;stroke-width:0.26458332px;stroke-linecap:butt;stroke-linejoin:miter;stroke-opacity:1" />
    <ellipse
       ry="5.5319109"
       rx="5.5319104"
       cy="34.088669"
       cx="80.067131"
       id="path3757"
       style="fill:#800000;stroke-width:0.26458332" />
    <path
       id="path3759"
       d="m 7.5699827,106.00351 c 52.4075723,9.31691 30.2799313,12.22844 71.0413773,8.7346 40.76144,-3.49384 19.21611,-10.48152 61.14216,-4.65845 41.92606,5.82306 51.82527,7.56998 56.48372,7.56998 4.65845,0 11.06382,1.74692 8.15229,5.82307 -2.91153,4.07614 -0.58231,7.56998 -10.48152,4.07614 -9.8992,-3.49384 -19.21611,-4.65845 -29.69762,-5.82306 -10.48152,-1.16462 -20.38073,-5.24076 -37.26761,-3.49384 -16.88688,1.74692 -29.11531,-1.74692 -42.508356,2.91153 -13.393047,4.65845 -27.368399,8.73459 -42.508366,4.07614 -15.139965,-4.65845 -26.786092,-5.82306 -32.0268494,-10.48151 -5.2407577,-4.65845 -6.4053705,-9.3169 -6.9876768,-9.3169 -0.5823064,0 4.6584509,0.5823 4.6584509,0.5823 z"
       style="fill:#800000;stroke:#000000;stroke-width:0.26458332px;stroke-linecap:butt;stroke-linejoin:miter;stroke-opacity:1" />
  </g>
</svg>
